<?xml version="1.0" standalone="no"?>
<!DOCTYPE svg PUBLIC "-//W3C//DTD SVG 20010904//EN"
 "http://www.w3.org/TR/2001/REC-SVG-20010904/DTD/svg10.dtd">
<svg version="1.0" xmlns="http://www.w3.org/2000/svg"
 width="700.000000pt" height="700.000000pt" viewBox="0 0 700.000000 700.000000"
 preserveAspectRatio="xMidYMid meet">
<metadata>
Created by potrace 1.14, written by Peter Selinger 2001-2017
</metadata>
<g transform="translate(0.000000,700.000000) scale(0.100000,-0.100000)"
fill="#000000" stroke="none">
<path d="M1435 6595 c-163 -28 -348 -103 -500 -203 -91 -60 -267 -237 -328
-329 -65 -98 -120 -210 -156 -318 -64 -191 -61 -84 -61 -2245 0 -2161 -3
-2054 61 -2245 65 -194 157 -343 304 -491 248 -250 550 -374 912 -374 l133 0
2 1815 c1 998 3 1845 3 1882 l0 67 -96 36 c-119 45 -228 117 -283 186 -40 51
-254 479 -245 489 3 2 115 27 249 56 228 48 252 51 345 46 159 -8 281 -58 410
-168 52 -45 61 -49 109 -49 48 0 56 4 117 54 515 428 1233 514 1835 221 486
-236 828 -692 925 -1231 30 -167 30 -421 0 -588 -123 -684 -639 -1220 -1314
-1365 -450 -96 -926 -4 -1307 254 l-110 74 2 -891 3 -890 1510 1 c1324 1 1522
4 1605 17 397 66 735 316 916 677 29 59 65 145 78 190 59 192 56 85 56 2227 0
2165 3 2046 -61 2243 -63 193 -158 347 -309 498 -150 150 -317 253 -508 313
-186 58 -91 56 -2242 55 -1605 -1 -1990 -4 -2055 -14z"/>
<path d="M3363 4550 c-244 -34 -437 -132 -613 -309 -152 -154 -243 -320 -285
-521 -20 -95 -20 -345 0 -440 43 -205 133 -368 290 -525 157 -156 314 -243
527 -292 99 -22 337 -22 436 0 213 49 370 136 527 292 156 157 243 314 292
527 22 99 22 337 0 436 -49 213 -136 370 -292 527 -157 157 -320 247 -527 291
-90 18 -272 26 -355 14z"/>
</g>
</svg>
