<?xml version="1.0" standalone="no"?>
<!DOCTYPE svg PUBLIC "-//W3C//DTD SVG 20010904//EN"
 "http://www.w3.org/TR/2001/REC-SVG-20010904/DTD/svg10.dtd">
<svg version="1.0" xmlns="http://www.w3.org/2000/svg"
 width="700.000000pt" height="700.000000pt" viewBox="0 0 700.000000 700.000000"
 preserveAspectRatio="xMidYMid meet">
<metadata>
Created by potrace 1.14, written by Peter Selinger 2001-2017
</metadata>
<g transform="translate(0.000000,700.000000) scale(0.100000,-0.100000)"
fill="#000000" stroke="none">
<path d="M3488 6793 c-1 -5 -52 -53 -113 -108 -139 -127 -501 -488 -625 -624
-113 -123 -101 -109 -175 -195 -33 -38 -71 -81 -84 -95 -23 -26 -237 -291
-278 -347 -252 -336 -444 -639 -593 -934 -66 -131 -140 -287 -140 -296 0 -2
-9 -23 -19 -47 -55 -121 -160 -447 -187 -582 -22 -110 -36 -186 -40 -215 -2
-19 -6 -48 -8 -65 -21 -144 -28 -411 -14 -539 16 -154 19 -173 34 -246 74
-365 198 -639 451 -1000 36 -51 179 -218 257 -299 85 -87 282 -266 351 -317
21 -16 46 -36 55 -44 9 -8 27 -23 40 -33 14 -9 57 -40 95 -68 154 -112 415
-275 600 -374 50 -26 109 -59 133 -71 23 -13 42 -20 42 -15 0 4 -9 34 -19 67
-55 172 -103 406 -125 613 -12 113 -14 421 -3 471 4 14 9 47 12 74 21 185 103
423 201 590 198 332 447 593 778 811 l121 80 47 90 c38 73 106 221 178 390 40
93 121 362 135 445 3 19 8 42 10 50 2 8 7 35 10 60 4 24 8 47 10 50 1 3 7 39
11 80 15 141 9 470 -11 580 -1 8 -6 35 -10 60 -11 73 -72 300 -103 391 -169
482 -481 991 -966 1572 -38 46 -51 55 -58 40z"/>
<path d="M5046 5200 c-27 -49 -77 -134 -112 -190 -60 -96 -64 -109 -50 -158 3
-9 8 -42 11 -72 3 -30 8 -62 10 -70 8 -31 19 -219 18 -320 0 -143 -18 -346
-39 -441 -3 -13 -7 -35 -10 -49 -42 -205 -100 -395 -180 -588 -58 -141 -57
-134 -35 -122 72 38 517 181 641 206 14 3 59 13 100 24 41 10 101 24 133 30
64 13 69 19 87 103 36 177 -4 460 -110 777 -38 111 -145 393 -170 445 -5 11
-40 90 -78 175 -102 229 -154 340 -161 340 -3 0 -28 -40 -55 -90z"/>
<path d="M6779 3346 c-2 -2 -47 -7 -99 -10 -52 -4 -108 -9 -125 -11 -16 -2
-59 -6 -95 -10 -36 -3 -74 -8 -85 -10 -11 -2 -47 -7 -80 -10 -33 -3 -69 -7
-80 -9 -11 -2 -45 -7 -75 -11 -63 -8 -80 -10 -170 -25 -111 -17 -173 -28 -205
-35 -5 -2 -27 -6 -48 -9 -87 -14 -367 -79 -495 -116 -385 -109 -696 -244 -957
-415 -124 -82 -127 -84 -239 -179 -206 -177 -391 -411 -496 -631 -101 -210
-131 -349 -136 -630 -2 -110 1 -227 6 -260 4 -33 11 -82 15 -110 13 -103 53
-278 100 -440 29 -98 84 -258 93 -267 4 -4 29 -2 55 2 26 5 69 12 95 16 26 3
50 8 53 10 4 2 24 6 45 9 36 6 191 33 224 40 155 33 312 70 400 95 41 11 87
23 103 26 35 7 363 114 447 147 851 330 1356 833 1631 1625 27 78 96 325 105
381 3 14 9 42 14 61 12 50 58 343 66 425 3 39 8 84 10 100 2 17 6 75 9 130 4
55 8 106 10 113 3 8 -10 12 -44 12 -26 0 -50 -2 -52 -4z"/>
<path d="M127 3263 c-6 -60 -1 -476 7 -521 3 -18 8 -52 11 -75 79 -568 406
-1102 915 -1492 36 -28 67 -53 70 -56 3 -3 70 -49 150 -101 174 -115 316 -196
505 -288 133 -64 417 -190 431 -190 3 0 20 -6 37 -14 55 -23 141 -57 136 -52
-2 2 -35 27 -74 55 -325 235 -640 538 -843 813 -50 68 -162 235 -162 242 0 3
-11 21 -24 40 -79 117 -215 444 -270 646 -52 194 -74 344 -82 555 -3 83 -7
155 -9 161 -10 32 -719 324 -785 324 -5 0 -10 -21 -13 -47z"/>
</g>
</svg>
